<svg width="254" height="19" viewBox="0 0 254 19" fill="none" xmlns="http://www.w3.org/2000/svg">
<path d="M0.721591 18V0.545454H3.88352V15.3494H11.571V18H0.721591ZM17.2131 18H13.8381L19.983 0.545454H23.8864L30.0398 18H26.6648L22.0028 4.125H21.8665L17.2131 18ZM17.3239 11.1562H26.5284V13.696H17.3239V11.1562ZM46.6825 0.545454V18H43.87L35.6456 6.1108H35.5007V18H32.3388V0.545454H35.1683L43.3842 12.4432H43.5376V0.545454H46.6825ZM56.0426 18H50.1278V0.545454H56.1619C57.8949 0.545454 59.3835 0.894886 60.6278 1.59375C61.8778 2.28693 62.8381 3.28409 63.5085 4.58523C64.179 5.88636 64.5142 7.44318 64.5142 9.25568C64.5142 11.0739 64.1761 12.6364 63.5 13.9432C62.8295 15.25 61.8608 16.2528 60.5938 16.9517C59.3324 17.6506 57.8153 18 56.0426 18ZM53.2898 15.2642H55.8892C57.1051 15.2642 58.1193 15.0426 58.9318 14.5994C59.7443 14.1506 60.3551 13.483 60.7642 12.5966C61.1733 11.7045 61.3778 10.5909 61.3778 9.25568C61.3778 7.92045 61.1733 6.8125 60.7642 5.93182C60.3551 5.04545 59.75 4.38352 58.9489 3.94602C58.1534 3.50284 57.1648 3.28125 55.983 3.28125H53.2898V15.2642ZM67.5185 18V0.545454H70.6804V15.3494H78.3679V18H67.5185ZM96.0291 9.27273C96.0291 11.1534 95.6768 12.7642 94.9723 14.1051C94.2734 15.4403 93.3189 16.4631 92.1087 17.1733C90.9041 17.8835 89.5376 18.2386 88.0092 18.2386C86.4808 18.2386 85.1115 17.8835 83.9013 17.1733C82.6967 16.4574 81.7422 15.4318 81.0376 14.0966C80.3388 12.7557 79.9893 11.1477 79.9893 9.27273C79.9893 7.39205 80.3388 5.78409 81.0376 4.44886C81.7422 3.10795 82.6967 2.08239 83.9013 1.37216C85.1115 0.661931 86.4808 0.306818 88.0092 0.306818C89.5376 0.306818 90.9041 0.661931 92.1087 1.37216C93.3189 2.08239 94.2734 3.10795 94.9723 4.44886C95.6768 5.78409 96.0291 7.39205 96.0291 9.27273ZM92.8501 9.27273C92.8501 7.94886 92.6428 6.83239 92.228 5.92329C91.8189 5.00852 91.2507 4.31818 90.5234 3.85227C89.7962 3.38068 88.9581 3.14489 88.0092 3.14489C87.0604 3.14489 86.2223 3.38068 85.495 3.85227C84.7678 4.31818 84.1967 5.00852 83.782 5.92329C83.3729 6.83239 83.1683 7.94886 83.1683 9.27273C83.1683 10.5966 83.3729 11.7159 83.782 12.6307C84.1967 13.5398 84.7678 14.2301 85.495 14.7017C86.2223 15.1676 87.0604 15.4006 88.0092 15.4006C88.9581 15.4006 89.7962 15.1676 90.5234 14.7017C91.2507 14.2301 91.8189 13.5398 92.228 12.6307C92.6428 11.7159 92.8501 10.5966 92.8501 9.27273ZM99.0185 18V0.545454H105.564C106.905 0.545454 108.03 0.778409 108.939 1.24432C109.854 1.71023 110.544 2.36364 111.01 3.20454C111.482 4.03977 111.717 5.0142 111.717 6.12784C111.717 7.24716 111.479 8.21875 111.001 9.04261C110.53 9.8608 109.834 10.4943 108.913 10.9432C107.993 11.3864 106.862 11.608 105.521 11.608H100.859V8.98295H105.095C105.879 8.98295 106.521 8.875 107.021 8.65909C107.521 8.4375 107.891 8.11648 108.129 7.69602C108.374 7.26989 108.496 6.74716 108.496 6.12784C108.496 5.50852 108.374 4.98011 108.129 4.54261C107.885 4.09943 107.513 3.7642 107.013 3.53693C106.513 3.30398 105.868 3.1875 105.078 3.1875H102.18V18H99.0185ZM108.036 10.0909L112.357 18H108.828L104.584 10.0909H108.036ZM120.543 18H114.628V0.545454H120.662C122.395 0.545454 123.884 0.894886 125.128 1.59375C126.378 2.28693 127.338 3.28409 128.009 4.58523C128.679 5.88636 129.014 7.44318 129.014 9.25568C129.014 11.0739 128.676 12.6364 128 13.9432C127.33 15.25 126.361 16.2528 125.094 16.9517C123.832 17.6506 122.315 18 120.543 18ZM117.79 15.2642H120.389C121.605 15.2642 122.619 15.0426 123.432 14.5994C124.244 14.1506 124.855 13.483 125.264 12.5966C125.673 11.7045 125.878 10.5909 125.878 9.25568C125.878 7.92045 125.673 6.8125 125.264 5.93182C124.855 5.04545 124.25 4.38352 123.449 3.94602C122.653 3.50284 121.665 3.28125 120.483 3.28125H117.79V15.2642ZM143.886 18H137.972V0.545454H144.006C145.739 0.545454 147.227 0.894886 148.472 1.59375C149.722 2.28693 150.682 3.28409 151.352 4.58523C152.023 5.88636 152.358 7.44318 152.358 9.25568C152.358 11.0739 152.02 12.6364 151.344 13.9432C150.673 15.25 149.705 16.2528 148.438 16.9517C147.176 17.6506 145.659 18 143.886 18ZM141.134 15.2642H143.733C144.949 15.2642 145.963 15.0426 146.776 14.5994C147.588 14.1506 148.199 13.483 148.608 12.5966C149.017 11.7045 149.222 10.5909 149.222 9.25568C149.222 7.92045 149.017 6.8125 148.608 5.93182C148.199 5.04545 147.594 4.38352 146.793 3.94602C145.997 3.50284 145.009 3.28125 143.827 3.28125H141.134V15.2642ZM158.524 0.545454V18H155.362V0.545454H158.524ZM171.434 5.34375C171.354 4.59943 171.019 4.01989 170.428 3.60511C169.843 3.19034 169.082 2.98295 168.144 2.98295C167.485 2.98295 166.92 3.08239 166.448 3.28125C165.977 3.48011 165.616 3.75 165.366 4.09091C165.116 4.43182 164.988 4.82102 164.982 5.25852C164.982 5.62216 165.065 5.9375 165.229 6.20455C165.4 6.47159 165.63 6.69886 165.92 6.88636C166.21 7.06818 166.531 7.22159 166.883 7.34659C167.235 7.47159 167.59 7.5767 167.948 7.66193L169.585 8.07102C170.244 8.22443 170.877 8.43182 171.485 8.69318C172.099 8.95455 172.647 9.28409 173.13 9.68182C173.619 10.0795 174.005 10.5597 174.289 11.1222C174.573 11.6847 174.715 12.3437 174.715 13.0994C174.715 14.1222 174.454 15.0227 173.931 15.8011C173.408 16.5739 172.653 17.179 171.664 17.6165C170.681 18.0483 169.491 18.2642 168.093 18.2642C166.735 18.2642 165.556 18.054 164.556 17.6335C163.562 17.2131 162.783 16.5994 162.221 15.7926C161.664 14.9858 161.363 14.0028 161.317 12.8438H164.428C164.474 13.4517 164.661 13.9574 164.991 14.3608C165.32 14.7642 165.749 15.0653 166.278 15.2642C166.812 15.4631 167.408 15.5625 168.067 15.5625C168.755 15.5625 169.357 15.4602 169.874 15.2557C170.397 15.0455 170.806 14.7557 171.102 14.3864C171.397 14.0114 171.548 13.5739 171.553 13.0739C171.548 12.6193 171.414 12.2443 171.153 11.9489C170.891 11.6477 170.525 11.3977 170.053 11.1989C169.587 10.9943 169.042 10.8125 168.417 10.6534L166.431 10.142C164.994 9.77273 163.857 9.21307 163.022 8.46307C162.192 7.70739 161.778 6.70455 161.778 5.45454C161.778 4.42614 162.056 3.52557 162.613 2.75284C163.175 1.98011 163.94 1.38068 164.906 0.954545C165.871 0.522727 166.965 0.306818 168.187 0.306818C169.425 0.306818 170.511 0.522727 171.442 0.954545C172.38 1.38068 173.116 1.97443 173.65 2.73579C174.184 3.49148 174.46 4.3608 174.477 5.34375H171.434ZM177.534 18V0.545454H184.08C185.42 0.545454 186.545 0.795454 187.455 1.29545C188.369 1.79545 189.06 2.48295 189.526 3.35795C189.997 4.22727 190.233 5.21591 190.233 6.32386C190.233 7.44318 189.997 8.4375 189.526 9.30682C189.054 10.1761 188.358 10.8608 187.438 11.3608C186.517 11.8551 185.384 12.1023 184.037 12.1023H179.699V9.50284H183.611C184.395 9.50284 185.037 9.36648 185.537 9.09375C186.037 8.82102 186.406 8.44602 186.645 7.96875C186.889 7.49148 187.011 6.94318 187.011 6.32386C187.011 5.70455 186.889 5.15909 186.645 4.6875C186.406 4.21591 186.034 3.84943 185.528 3.58807C185.028 3.32102 184.384 3.1875 183.594 3.1875H180.696V18H177.534ZM203.982 0.545454H207.144V11.9489C207.144 13.1989 206.849 14.2983 206.258 15.2472C205.673 16.196 204.849 16.9375 203.786 17.4716C202.724 18 201.482 18.2642 200.062 18.2642C198.636 18.2642 197.391 18 196.329 17.4716C195.266 16.9375 194.442 16.196 193.857 15.2472C193.272 14.2983 192.979 13.1989 192.979 11.9489V0.545454H196.141V11.6847C196.141 12.4119 196.3 13.0597 196.619 13.6278C196.942 14.196 197.397 14.642 197.982 14.9659C198.567 15.2841 199.261 15.4432 200.062 15.4432C200.863 15.4432 201.556 15.2841 202.141 14.9659C202.732 14.642 203.187 14.196 203.505 13.6278C203.823 13.0597 203.982 12.4119 203.982 11.6847V0.545454ZM209.814 3.19602V0.545454H223.74V3.19602H218.345V18H215.209V3.19602H209.814ZM226.425 18V0.545454H237.777V3.19602H229.587V7.93466H237.189V10.5852H229.587V15.3494H237.845V18H226.425ZM250.489 5.34375C250.409 4.59943 250.074 4.01989 249.483 3.60511C248.898 3.19034 248.136 2.98295 247.199 2.98295C246.54 2.98295 245.974 3.08239 245.503 3.28125C245.031 3.48011 244.67 3.75 244.42 4.09091C244.17 4.43182 244.043 4.82102 244.037 5.25852C244.037 5.62216 244.119 5.9375 244.284 6.20455C244.455 6.47159 244.685 6.69886 244.974 6.88636C245.264 7.06818 245.585 7.22159 245.938 7.34659C246.29 7.47159 246.645 7.5767 247.003 7.66193L248.639 8.07102C249.298 8.22443 249.932 8.43182 250.54 8.69318C251.153 8.95455 251.702 9.28409 252.185 9.68182C252.673 10.0795 253.06 10.5597 253.344 11.1222C253.628 11.6847 253.77 12.3437 253.77 13.0994C253.77 14.1222 253.509 15.0227 252.986 15.8011C252.463 16.5739 251.707 17.179 250.719 17.6165C249.736 18.0483 248.545 18.2642 247.148 18.2642C245.79 18.2642 244.611 18.054 243.611 17.6335C242.616 17.2131 241.838 16.5994 241.276 15.7926C240.719 14.9858 240.418 14.0028 240.372 12.8438H243.483C243.528 13.4517 243.716 13.9574 244.045 14.3608C244.375 14.7642 244.804 15.0653 245.332 15.2642C245.866 15.4631 246.463 15.5625 247.122 15.5625C247.81 15.5625 248.412 15.4602 248.929 15.2557C249.452 15.0455 249.861 14.7557 250.156 14.3864C250.452 14.0114 250.602 13.5739 250.608 13.0739C250.602 12.6193 250.469 12.2443 250.207 11.9489C249.946 11.6477 249.58 11.3977 249.108 11.1989C248.642 10.9943 248.097 10.8125 247.472 10.6534L245.486 10.142C244.048 9.77273 242.912 9.21307 242.077 8.46307C241.247 7.70739 240.832 6.70455 240.832 5.45454C240.832 4.42614 241.111 3.52557 241.668 2.75284C242.23 1.98011 242.994 1.38068 243.96 0.954545C244.926 0.522727 246.02 0.306818 247.241 0.306818C248.48 0.306818 249.565 0.522727 250.497 0.954545C251.435 1.38068 252.17 1.97443 252.705 2.73579C253.239 3.49148 253.514 4.3608 253.531 5.34375H250.489Z" fill="#FFFBF2"/>
</svg>
